<svg width="63" height="58" viewBox="0 0 63 58" fill="none" xmlns="http://www.w3.org/2000/svg">
<path d="M39.7 44.1L27.8 56C26.5 57.2 24.9 57.9 23.3 57.9C22 57.9 20.7 57.5 19.6 56.7L18 55.1L9.70001 46.6C13.6 50 20.6 54.1 27.4 47.3C31.2 43.5 33.6 41.1 35.1 39.6L39.7 44.1Z" fill="url(#paint0_linear_498_486)"/>
<path d="M18.1 7.1C18.1 8.9 17.4 10.5 16.2 11.6C15 12.8 13.5 13.5 11.7 13.5C9.10003 13.5 6.80002 11.9 5.90002 9.6C6.70002 9.9 7.70003 10.1 8.60003 10.1C10.6 10.1 12.4 9.3 13.8 8C15.1 6.7 15.9 4.9 15.9 2.8C15.9 2.6 15.9 2.4 15.9 2.3C17.2 3.4 18.1 5.2 18.1 7.1Z" fill="url(#paint1_linear_498_486)"/>
<path d="M15.9 2.8C15.9 4.8 15.1 6.6 13.8 8C12.5 9.3 10.6 10.1 8.60003 10.1C7.60003 10.1 6.70002 9.9 5.90002 9.6C5.60002 8.8 5.40002 8 5.40002 7.1C5.40002 5.3 6.10002 3.7 7.30002 2.6C8.50002 1.4 10 0.699997 11.8 0.699997C13.4 0.699997 14.9 1.3 16 2.3C15.9 2.4 15.9 2.6 15.9 2.8Z" fill="url(#paint2_linear_498_486)"/>
<path d="M23.4 42.3L23.2 42.5C21.7 43.9 19.8 45 17.8 45.6L2.60001 30.4L2.70001 30.3C3.90001 29 5.60001 28.4 7.20001 28.4C8.80001 28.4 10.5 29 11.7 30.3L23.4 42.3Z" fill="url(#paint3_linear_498_486)"/>
<path d="M60.7 55.8L45.6 40.7C45.6 40.6 45.7 40.5 45.7 40.4C45.7 40.2 45.8 40.1 45.9 39.9C46 39.7 46 39.6 46.1 39.4C46.2 39.2 46.2 39.1 46.3 38.9C46.5 38.5 46.6 38.2 46.8 37.9C46.9 37.8 46.9 37.6 47 37.5C47.2 37.2 47.3 36.9 47.5 36.7C47.6 36.6 47.7 36.4 47.8 36.3L48.9 35.2L50.6 33.5L52.5 31.6C52.2 31.9 52 32.3 51.8 32.7C51.4 33.5 51.2 34.4 51.2 35.2C51.2 35.3 51.2 35.5 51.2 35.6C51.2 35.9 51.3 36.1 51.3 36.4C51.3 36.5 51.4 36.7 51.4 36.8C51.4 36.9 51.5 37 51.5 37.1V37.2C51.5 37.3 51.6 37.4 51.6 37.6C51.7 37.7 51.7 37.8 51.8 37.9C51.9 38 51.9 38.1 52 38.3C52.2 38.7 52.5 39 52.8 39.3L60.5 47.1C63 49.4 63 53.3 60.7 55.8Z" fill="url(#paint4_linear_498_486)"/>
<path d="M44.2 30.6C41.1 34.2 40.9 38.2 41.9 41.9C43.3 47.2 47.1 51.6 47.7 52.2L39.7 44.2L34.8 39.2C34.7 39.1 34.7 39.1 34.6 39L34.5 38.9C34.3 38.6 34.1 38.4 33.9 38.1C33.8 38 33.8 37.9 33.8 37.8C33.2 36.7 33 35.5 33.2 34.3C33.2 34.1 33.3 33.9 33.3 33.8C33.4 33.3 33.6 32.7 33.9 32.2C34 32 34.2 31.7 34.4 31.5C34.5 31.3 34.7 31.2 34.8 31.1L39.7 26.2L39.8 26.1L51.6 14.3C52.8 13.1 54.5 12.4 56.1 12.4C57.7 12.4 59.4 13 60.6 14.3C58.7 16.2 52.6 22.3 44.9 30.1C44.6 30.2 44.4 30.4 44.2 30.6Z" fill="url(#paint5_linear_498_486)"/>
<path d="M60.6 23.2L52.8 31C52.6 31.2 52.5 31.3 52.4 31.5L50.5 33.4L48.8 35L47.7 36.1C47.6 36.2 47.5 36.4 47.4 36.5C47.2 36.8 47 37.1 46.9 37.3C46.8 37.4 46.8 37.6 46.7 37.7C46.5 38 46.4 38.4 46.2 38.7C46.1 39 46 39.2 46 39.4C45.9 39.6 45.9 39.7 45.8 39.9C45.7 40.1 45.7 40.2 45.6 40.4C45.6 40.5 45.5 40.6 45.5 40.7C45.5 40.8 45.4 40.9 45.4 41C45.4 41.2 45.3 41.3 45.3 41.5C45.3 41.6 45.2 41.8 45.2 41.9C45.2 42.1 45.1 42.2 45.1 42.4V42.5C45.1 42.7 45.1 42.8 45.1 43C45.1 43.2 45.1 43.4 45.1 43.5C45.1 43.7 45.1 43.9 45.1 44.1C45.1 47.1 46.1 49.9 47.8 52.2V52.3C47.8 52.3 47.8 52.3 47.7 52.2C47.1 51.6 43.3 47.2 41.9 41.9C40.9 38.3 41.1 34.2 44.2 30.6C44.4 30.4 44.6 30.1 44.9 29.9C52.6 22.2 58.8 16 60.6 14.1C60.7 14.2 60.8 14.3 60.9 14.4C63.1 17 63 20.8 60.6 23.2Z" fill="url(#paint6_linear_498_486)"/>
<path d="M48.6 53.1L47.8 52.3V52.2C48.1 52.5 48.3 52.8 48.6 53.1Z" fill="#848484"/>
<path d="M33.2 36.4C33.1 36.2 33.1 36 33.1 35.7C33.1 35.9 33.1 36.2 33.2 36.4Z" fill="#FFD717"/>
<path d="M60.7 55.8C60.6 55.9 60.6 55.9 60.5 56C60 56.5 59.4 56.9 58.8 57.2C56.4 58.4 53.4 58 51.4 56L49.3 53.8L48.6 53.1C46.4 50.7 45.1 47.6 45.1 44.1C45.1 43.9 45.1 43.7 45.1 43.5C45.1 43.3 45.1 43.1 45.1 43C45.1 42.8 45.1 42.7 45.1 42.5V42.4C45.1 42.2 45.1 42.1 45.2 41.9C45.2 41.7 45.3 41.6 45.3 41.5C45.3 41.3 45.4 41.2 45.4 41C45.4 40.9 45.4 40.8 45.5 40.7L60.7 55.8Z" fill="url(#paint7_linear_498_486)"/>
<path d="M17.8 45.6C16.7 45.9 15.6 46.1 14.4 46.1C11.5 46.1 8.90001 45.1 6.70001 43.5L3.90001 40.7L2.70001 39.4C0.600011 37.3 0.300011 34.1 1.70001 31.6C1.90001 31.2 2.20001 30.8 2.60001 30.4L17.8 45.6Z" fill="url(#paint8_linear_498_486)"/>
<path d="M39.6 26.1L35.1 30.6L18.8 14.2C21.3 11.7 25.4 11.7 27.8 14.2L39.6 26.1Z" fill="url(#paint9_linear_498_486)"/>
<path d="M34.7 39.2L35.1 39.6C33.6 41.1 31.2 43.5 27.4 47.3C20.6 54.1 13.5 50 9.70002 46.6L6.80002 43.6C8.90002 45.2 11.6 46.1 14.5 46.1C17.9 46.1 21 44.8 23.3 42.6L23.5 42.4L26.5 39.4L26.7 39.2C29 36.9 29 33.3 26.7 31L19 23.2C16.5 20.7 16.5 16.7 19 14.2L35.4 30.6L34.7 31C32.9 32.9 32.5 35.6 33.7 37.8C34 38.3 34.3 38.8 34.7 39.2Z" fill="url(#paint10_linear_498_486)"/>
<defs>
<linearGradient id="paint0_linear_498_486" x1="19.9677" y1="40.8012" x2="30.9292" y2="51.7627" gradientUnits="userSpaceOnUse">
<stop stop-color="#2C1C8B"/>
<stop offset="1" stop-color="#1481EF"/>
</linearGradient>
<linearGradient id="paint1_linear_498_486" x1="15.9162" y1="12.0026" x2="7.80383" y2="2.5234" gradientUnits="userSpaceOnUse">
<stop offset="1.69957e-06" stop-color="#1481EF"/>
<stop offset="0.3703" stop-color="#1065CB"/>
<stop offset="1" stop-color="#083087"/>
</linearGradient>
<linearGradient id="paint2_linear_498_486" x1="13.2754" y1="8.3421" x2="5.48752" y2="0.554197" gradientUnits="userSpaceOnUse">
<stop offset="1.69957e-06" stop-color="#1481EF"/>
<stop offset="0.1691" stop-color="#137DEA"/>
<stop offset="0.3812" stop-color="#1271DA"/>
<stop offset="0.6161" stop-color="#0F5DC1"/>
<stop offset="0.8657" stop-color="#0B419D"/>
<stop offset="1" stop-color="#083087"/>
</linearGradient>
<linearGradient id="paint3_linear_498_486" x1="9.49711" y1="24.0835" x2="18.9788" y2="57.4714" gradientUnits="userSpaceOnUse">
<stop stop-color="#1481EF"/>
<stop offset="0.1686" stop-color="#1678E6"/>
<stop offset="0.4465" stop-color="#1C5FCD"/>
<stop offset="0.7972" stop-color="#2637A5"/>
<stop offset="1" stop-color="#2C1C8B"/>
</linearGradient>
<linearGradient id="paint4_linear_498_486" x1="50.3247" y1="17.139" x2="54.4823" y2="49.7598" gradientUnits="userSpaceOnUse">
<stop stop-color="#6E7989"/>
<stop offset="0.2118" stop-color="#8B939F"/>
<stop offset="0.5634" stop-color="#B6BABF"/>
<stop offset="0.838" stop-color="#D1D2D4"/>
<stop offset="1" stop-color="#DBDBDB"/>
</linearGradient>
<linearGradient id="paint5_linear_498_486" x1="59.1123" y1="38.1625" x2="42.4775" y2="21.5277" gradientUnits="userSpaceOnUse">
<stop stop-color="#6E7989"/>
<stop offset="0.1931" stop-color="#89919D"/>
<stop offset="0.5553" stop-color="#B5B9BF"/>
<stop offset="0.8364" stop-color="#D1D2D3"/>
<stop offset="1" stop-color="#DBDBDB"/>
</linearGradient>
<linearGradient id="paint6_linear_498_486" x1="43.5474" y1="22.6003" x2="55.4581" y2="34.5109" gradientUnits="userSpaceOnUse">
<stop offset="4.74173e-07" stop-color="#6E7989"/>
<stop offset="0.0466197" stop-color="#858E9A"/>
<stop offset="0.115" stop-color="#A0A6AE"/>
<stop offset="0.1935" stop-color="#B6B9BF"/>
<stop offset="0.2853" stop-color="#C7C9CC"/>
<stop offset="0.3988" stop-color="#D2D3D4"/>
<stop offset="0.558" stop-color="#D9D9DA"/>
<stop offset="1" stop-color="#DBDBDB"/>
</linearGradient>
<linearGradient id="paint7_linear_498_486" x1="49.035" y1="18.2029" x2="54.2375" y2="61.2341" gradientUnits="userSpaceOnUse">
<stop stop-color="#6E7989"/>
<stop offset="0.2118" stop-color="#8B939F"/>
<stop offset="0.5634" stop-color="#B6BABF"/>
<stop offset="0.838" stop-color="#D1D2D4"/>
<stop offset="1" stop-color="#DBDBDB"/>
</linearGradient>
<linearGradient id="paint8_linear_498_486" x1="10.1553" y1="22.2186" x2="8.49271" y2="57.0138" gradientUnits="userSpaceOnUse">
<stop stop-color="#1481EF"/>
<stop offset="1" stop-color="#2C1C8B"/>
</linearGradient>
<linearGradient id="paint9_linear_498_486" x1="20.6245" y1="11.4863" x2="47.3911" y2="38.2529" gradientUnits="userSpaceOnUse">
<stop stop-color="#1481EF"/>
<stop offset="0.1721" stop-color="#157CEA"/>
<stop offset="0.3879" stop-color="#196CDA"/>
<stop offset="0.6269" stop-color="#1F53C1"/>
<stop offset="0.881" stop-color="#272F9E"/>
<stop offset="1" stop-color="#2C1C8B"/>
</linearGradient>
<linearGradient id="paint10_linear_498_486" x1="47.2325" y1="8.7463" x2="11.7847" y2="41.0197" gradientUnits="userSpaceOnUse">
<stop stop-color="#2B1F8E"/>
<stop offset="0.4098" stop-color="#2245B3"/>
<stop offset="1" stop-color="#1481EF"/>
</linearGradient>
</defs>
</svg>
